<svg width="356" height="274" viewBox="0 0 356 274" fill="none" xmlns="http://www.w3.org/2000/svg">
<rect x="4.26025" y="93.1411" width="347.479" height="179.216" rx="8.5" fill="#FF9F92" stroke="white" stroke-width="3"/>
<path d="M2.76025 91.6411L178 211.173L353.239 91.6411" stroke="white" stroke-width="8"/>
<path d="M178 95.8563C134.095 81.8385 107.894 91.3487 100.457 7.06055C135.99 45.0728 168.218 27.7194 178 95.8563Z" fill="white" stroke="#FF9F92" stroke-width="5"/>
<path d="M174.454 91.6411C158.429 85.9065 145.556 66.763 147.243 65.0753C150.279 62.0402 166.158 71.5063 174.454 91.6411Z" fill="white" stroke="#FF9F92" stroke-width="4"/>
<path d="M178 95.8563C221.904 81.8385 248.105 91.3487 255.542 7.06055C220.009 45.0728 187.781 27.7194 178 95.8563Z" fill="white" stroke="#FF9F92" stroke-width="5"/>
<path d="M183.103 91.6411C199.128 85.9065 212.001 66.763 210.313 65.0753C207.278 62.0402 191.398 71.5063 183.103 91.6411Z" fill="white" stroke="#FF9F92" stroke-width="4"/>
<path d="M164.326 136.324C164.326 151.91 191.674 151.909 191.674 136.324H164.326Z" stroke="white" stroke-width="3"/>
<ellipse cx="125.383" cy="129.211" rx="5.11096" ry="5.08492" fill="white"/>
<ellipse cx="227.062" cy="129.211" rx="5.11096" ry="5.08503" transform="rotate(-180 227.062 129.211)" fill="white"/>
</svg>
